<svg id="svg" version="1.1" xmlns="http://www.w3.org/2000/svg" xmlns:xlink="http://www.w3.org/1999/xlink" width="400" height="174.98702646600935" viewBox="0, 0, 400,174.98702646600935"><g id="svgg"><path id="path0" d="M6.596 0.449 C 4.737 0.903,2.242 2.691,1.473 4.120 C 1.293 4.453,1.088 4.726,1.018 4.726 C 0.947 4.726,0.709 5.258,0.488 5.908 L 0.088 7.090 0.037 68.271 C -0.020 136.778,-0.131 130.832,1.244 132.954 C 1.993 134.110,2.983 135.299,3.206 135.310 C 3.285 135.314,3.600 135.509,3.907 135.742 C 4.560 136.241,6.017 136.893,6.477 136.893 C 6.654 136.893,6.831 136.991,6.871 137.112 C 6.972 137.416,46.645 137.434,47.282 137.130 C 47.513 137.020,48.096 136.793,48.578 136.625 C 49.059 136.458,49.616 136.174,49.814 135.994 C 50.013 135.814,50.249 135.667,50.339 135.667 C 50.534 135.667,53.042 133.047,53.042 132.843 C 53.042 132.765,53.235 132.280,53.471 131.764 C 53.706 131.248,53.982 130.320,54.082 129.702 C 54.338 128.121,54.336 9.285,54.080 7.703 C 53.873 6.431,52.938 4.290,52.366 3.780 C 52.160 3.597,51.991 3.341,51.991 3.211 C 51.991 3.082,51.932 2.975,51.860 2.974 C 51.788 2.973,51.397 2.664,50.992 2.288 C 50.587 1.911,49.977 1.503,49.636 1.379 C 49.294 1.256,49.015 1.100,49.015 1.032 C 49.015 0.233,9.689 -0.307,6.596 0.449 M145.558 0.289 C 144.418 0.526,143.600 0.780,143.370 0.968 C 143.225 1.086,142.857 1.310,142.552 1.464 C 141.057 2.221,139.258 4.373,138.801 5.952 C 138.675 6.385,138.490 6.796,138.389 6.865 C 138.023 7.114,138.144 130.222,138.511 130.853 C 138.679 131.142,138.817 131.481,138.817 131.606 C 138.819 131.924,139.316 132.851,139.712 133.277 C 139.895 133.473,140.044 133.694,140.044 133.769 C 140.044 133.962,141.116 135.010,141.817 135.503 C 142.141 135.732,142.504 136.013,142.623 136.128 C 142.743 136.244,143.255 136.468,143.761 136.628 C 144.268 136.787,144.872 137.011,145.103 137.124 C 145.418 137.279,150.437 137.330,165.147 137.330 L 184.770 137.330 186.018 136.926 C 188.675 136.065,191.070 133.834,191.785 131.554 C 191.936 131.072,192.153 130.489,192.266 130.258 C 192.424 129.938,192.473 115.282,192.473 68.709 C 192.473 22.136,192.424 7.480,192.266 7.160 C 192.153 6.929,191.933 6.336,191.778 5.844 C 191.294 4.301,189.577 2.277,188.110 1.520 C 187.717 1.318,187.298 1.057,187.179 0.940 C 186.426 0.207,185.463 0.174,165.217 0.195 C 154.597 0.207,145.751 0.248,145.558 0.289 M23.840 64.649 C 26.912 65.932,26.210 72.462,22.904 73.356 C 19.599 74.251,17.256 72.430,17.262 68.972 C 17.268 65.101,20.243 63.146,23.840 64.649 M161.966 64.637 C 165.264 66.024,164.579 72.501,161.046 73.349 C 158.129 74.049,156.037 72.822,155.578 70.142 C 154.829 65.771,158.054 62.992,161.966 64.637 M16.061 64.590 C 16.794 64.923,16.805 64.942,16.805 65.812 C 16.805 66.804,16.729 66.843,15.755 66.346 C 13.872 65.385,12.429 66.486,12.429 68.884 C 12.429 71.257,13.963 72.352,15.890 71.355 C 16.712 70.930,16.805 70.990,16.805 71.943 C 16.805 74.050,12.406 74.063,10.950 71.960 C 8.287 68.112,12.006 62.750,16.061 64.590 M34.238 64.420 C 34.573 64.420,34.610 72.804,34.276 73.138 C 33.941 73.473,32.314 73.404,31.993 73.042 C 31.843 72.873,31.085 71.514,30.308 70.022 L 28.895 67.309 28.846 70.284 L 28.796 73.260 27.921 73.260 L 27.046 73.260 26.999 69.081 C 26.945 64.283,26.905 64.420,28.347 64.420 C 29.666 64.420,29.706 64.461,31.230 67.396 L 32.549 69.934 32.598 67.229 L 32.648 64.523 33.085 64.402 C 33.326 64.335,33.628 64.312,33.756 64.350 C 33.884 64.389,34.101 64.420,34.238 64.420 M37.385 64.460 C 37.430 64.505,37.656 65.164,37.888 65.925 C 38.120 66.686,38.546 68.083,38.834 69.029 C 39.497 71.211,39.454 71.195,39.990 69.469 C 41.645 64.141,41.525 64.429,42.129 64.316 C 43.743 64.013,43.739 64.204,42.033 69.234 L 40.668 73.260 39.436 73.311 L 38.205 73.362 37.574 71.561 C 35.609 65.955,35.211 64.516,35.580 64.352 C 35.821 64.244,37.256 64.331,37.385 64.460 M154.530 64.590 C 155.262 64.923,155.274 64.942,155.274 65.812 C 155.274 66.804,155.197 66.843,154.223 66.346 C 152.360 65.395,150.878 66.509,150.864 68.872 C 150.851 71.217,152.441 72.347,154.358 71.355 C 155.167 70.937,155.274 70.994,155.274 71.847 C 155.274 74.033,150.903 74.117,149.422 71.960 C 146.761 68.083,150.461 62.744,154.530 64.590 M172.738 68.700 C 172.793 73.513,172.829 73.388,171.394 73.312 C 170.253 73.252,170.255 73.253,168.304 69.584 L 167.187 67.484 167.180 70.197 C 167.171 73.336,167.152 73.390,166.110 73.316 L 165.339 73.260 165.292 69.081 C 165.238 64.282,165.198 64.420,166.643 64.420 C 167.905 64.420,167.988 64.509,169.558 67.536 L 170.766 69.864 170.853 67.194 L 170.941 64.523 171.379 64.415 C 171.619 64.356,172.013 64.358,172.254 64.420 L 172.691 64.533 172.738 68.700 M175.466 64.467 C 175.633 64.589,176.009 65.475,176.301 66.436 C 176.594 67.397,177.005 68.750,177.216 69.441 C 177.427 70.133,177.644 70.744,177.699 70.798 C 177.753 70.853,178.092 69.933,178.452 68.753 C 179.747 64.504,179.777 64.437,180.410 64.318 C 181.120 64.185,181.707 64.362,181.707 64.709 C 181.707 64.941,179.890 70.502,179.125 72.611 L 178.853 73.362 177.612 73.311 L 176.372 73.260 174.939 68.972 C 173.648 65.109,173.534 64.661,173.789 64.464 C 174.154 64.181,175.078 64.183,175.466 64.467 M20.657 66.120 C 19.094 66.919,18.969 70.769,20.481 71.558 C 22.104 72.406,23.632 71.066,23.632 68.796 C 23.632 66.524,22.267 65.296,20.657 66.120 M158.956 66.127 C 157.260 66.983,157.142 70.719,158.784 71.551 C 160.388 72.362,161.931 71.011,161.922 68.803 C 161.913 66.549,160.552 65.322,158.956 66.127 " stroke="none" fill="#9cc3cc" fill-rule="evenodd"></path><path id="path1" d="M352.154 0.451 C 350.087 0.951,347.458 3.016,346.700 4.734 C 346.510 5.163,346.298 5.556,346.227 5.607 C 346.156 5.659,345.977 6.167,345.828 6.738 C 345.495 8.019,345.416 128.975,345.748 130.416 C 346.194 132.353,348.706 135.842,349.654 135.842 C 349.808 135.842,349.934 135.912,349.934 135.997 C 349.934 136.082,350.387 136.326,350.941 136.539 C 351.495 136.753,352.137 137.018,352.368 137.129 C 352.988 137.426,392.423 137.417,393.015 137.119 C 393.246 137.003,393.763 136.824,394.163 136.723 C 395.546 136.372,398.068 134.306,398.611 133.079 C 398.748 132.769,398.917 132.516,398.987 132.516 C 399.057 132.516,399.294 131.945,399.514 131.247 L 399.912 129.978 399.912 68.709 L 399.912 7.440 399.514 6.171 C 399.294 5.473,399.048 4.902,398.966 4.902 C 398.884 4.902,398.727 4.685,398.617 4.420 C 398.291 3.638,396.027 1.400,395.560 1.400 C 395.432 1.400,395.151 1.248,394.936 1.061 C 393.928 0.187,393.595 0.174,372.657 0.190 C 356.532 0.202,352.997 0.247,352.154 0.451 M383.271 64.492 C 383.912 64.760,384.162 65.254,383.995 65.921 C 383.874 66.403,383.498 66.457,382.845 66.083 C 382.261 65.749,381.359 65.756,381.019 66.096 C 380.430 66.685,380.735 67.108,382.360 67.953 C 386.450 70.081,384.097 74.638,379.606 73.285 C 378.815 73.047,378.368 72.369,378.543 71.672 C 378.667 71.179,378.890 71.149,379.754 71.510 C 382.179 72.523,383.350 70.872,381.061 69.669 C 378.713 68.435,378.063 66.962,379.140 65.317 C 379.754 64.380,381.952 63.941,383.271 64.492 M359.444 64.699 C 362.868 65.866,362.646 72.050,359.143 73.090 C 358.065 73.410,354.827 73.444,354.521 73.138 C 354.293 72.910,354.205 64.759,354.427 64.537 C 354.676 64.288,358.612 64.416,359.444 64.699 M368.403 65.208 L 368.403 65.908 366.783 65.958 L 365.164 66.009 365.164 66.958 L 365.164 67.906 366.521 67.958 L 367.877 68.009 367.877 68.709 L 367.877 69.409 366.521 69.460 L 365.164 69.511 365.164 70.635 L 365.164 71.759 366.783 71.810 L 368.403 71.860 368.403 72.560 L 368.403 73.260 365.878 73.309 C 363.975 73.346,363.318 73.303,363.211 73.134 C 363.038 72.862,363.014 64.703,363.185 64.532 C 363.251 64.466,364.453 64.433,365.854 64.459 L 368.403 64.508 368.403 65.208 M372.410 64.525 C 372.560 64.582,373.295 65.805,374.044 67.242 L 375.405 69.855 375.492 67.181 L 375.580 64.508 376.455 64.508 L 377.330 64.508 377.377 68.687 C 377.431 73.449,377.458 73.348,376.111 73.348 C 374.959 73.348,374.993 73.388,373.240 70.022 L 371.827 67.309 371.778 70.284 L 371.729 73.260 370.853 73.260 L 369.978 73.260 369.931 69.081 C 369.898 66.145,369.944 64.830,370.084 64.661 C 370.288 64.415,371.881 64.322,372.410 64.525 M391.039 65.164 L 390.985 65.908 389.365 65.958 L 387.746 66.009 387.746 66.965 L 387.746 67.921 389.128 67.921 C 390.458 67.921,390.513 67.937,390.620 68.362 C 390.842 69.249,390.500 69.497,389.053 69.497 L 387.746 69.497 387.746 70.635 L 387.746 71.772 389.409 71.772 L 391.072 71.772 391.072 72.560 L 391.072 73.348 388.569 73.348 C 385.368 73.348,385.646 73.765,385.646 68.951 C 385.646 63.895,385.318 64.420,388.475 64.420 L 391.092 64.420 391.039 65.164 M356.451 68.840 L 356.499 71.685 357.287 71.638 C 359.053 71.534,359.624 70.904,359.702 68.972 C 359.784 66.942,358.961 65.996,357.113 65.996 L 356.403 65.996 356.451 68.840 " stroke="none" fill="#8c5c64" fill-rule="evenodd"></path><path id="path2" d="M75.536 0.508 C 73.654 1.061,71.372 2.697,70.717 3.965 C 70.576 4.239,70.362 4.543,70.244 4.639 C 69.975 4.857,69.322 6.738,69.322 7.292 C 69.322 7.518,69.243 7.702,69.147 7.702 C 68.932 7.702,68.900 129.562,69.115 129.812 C 69.193 129.903,69.359 130.411,69.484 130.941 C 70.040 133.311,72.715 136.124,74.998 136.739 C 75.390 136.845,75.900 137.021,76.132 137.131 C 76.438 137.277,81.850 137.330,96.175 137.330 L 115.799 137.330 116.877 136.940 C 118.939 136.193,118.954 136.185,120.438 134.755 C 121.692 133.548,122.124 132.964,122.481 131.997 C 122.642 131.561,122.834 131.122,122.909 131.022 C 123.381 130.388,123.411 126.736,123.412 68.760 C 123.414 10.217,123.381 6.302,122.895 6.302 C 122.825 6.302,122.679 6.004,122.570 5.639 C 122.178 4.330,119.989 1.864,118.783 1.371 C 118.490 1.251,118.152 1.057,118.033 0.941 C 117.165 0.094,78.296 -0.302,75.536 0.508 M214.276 0.366 C 211.644 0.882,209.139 3.061,207.857 5.952 L 207.352 7.090 207.299 68.184 C 207.246 128.771,207.263 130.914,207.776 131.291 C 207.842 131.339,208.032 131.744,208.199 132.190 C 208.367 132.636,208.678 133.214,208.891 133.475 C 209.589 134.330,211.009 135.665,211.328 135.767 C 211.500 135.821,211.641 135.930,211.641 136.008 C 211.641 136.086,212.133 136.325,212.735 136.538 C 213.337 136.752,214.018 137.018,214.250 137.129 C 214.860 137.422,253.949 137.417,254.547 137.124 C 254.778 137.011,255.361 136.794,255.842 136.643 C 258.130 135.925,260.537 133.273,261.111 130.840 C 261.268 130.173,261.469 129.352,261.558 129.015 C 261.819 128.029,261.652 8.741,261.388 7.484 C 261.164 6.416,260.596 4.851,260.306 4.500 C 260.210 4.384,259.836 3.923,259.475 3.476 C 258.709 2.527,257.400 1.400,257.064 1.400 C 256.935 1.400,256.715 1.285,256.573 1.143 C 255.614 0.185,255.354 0.173,234.402 0.194 C 223.761 0.205,214.704 0.282,214.276 0.366 M36.020 64.369 C 36.237 64.411,36.552 64.409,36.720 64.365 C 36.887 64.322,36.709 64.287,36.324 64.289 C 35.939 64.291,35.802 64.327,36.020 64.369 M42.232 64.366 C 42.400 64.410,42.676 64.410,42.845 64.366 C 43.013 64.322,42.875 64.286,42.538 64.286 C 42.201 64.286,42.063 64.322,42.232 64.366 M94.130 64.656 C 96.832 66.058,96.814 71.415,94.103 72.936 C 90.206 75.121,86.515 71.463,87.994 66.882 C 88.707 64.674,91.920 63.509,94.130 64.656 M103.057 64.526 C 105.063 65.199,105.969 67.915,105.140 70.769 C 103.989 74.727,97.898 74.353,97.137 70.277 C 96.344 66.024,99.213 63.237,103.057 64.526 M174.313 64.369 C 174.531 64.411,174.846 64.409,175.013 64.365 C 175.180 64.322,175.002 64.287,174.617 64.289 C 174.232 64.291,174.095 64.327,174.313 64.369 M180.525 64.366 C 180.694 64.410,180.969 64.410,181.138 64.366 C 181.306 64.322,181.168 64.286,180.832 64.286 C 180.495 64.286,180.357 64.322,180.525 64.366 M232.939 64.758 C 235.048 65.943,235.448 70.274,233.634 72.271 C 232.380 73.651,229.324 73.883,227.792 72.715 C 225.902 71.273,225.854 67.001,227.709 65.240 C 228.813 64.191,231.491 63.945,232.939 64.758 M241.709 64.512 C 245.002 65.490,244.906 72.044,241.582 73.213 C 238.782 74.197,236.212 72.836,235.764 70.131 C 235.069 65.939,237.805 63.352,241.709 64.512 M381.225 64.372 C 381.538 64.411,382.050 64.411,382.363 64.372 C 382.676 64.333,382.420 64.301,381.794 64.301 C 381.168 64.301,380.912 64.333,381.225 64.372 M32.666 64.565 C 32.543 64.764,32.502 70.022,32.622 70.142 C 32.675 70.195,32.742 68.929,32.771 67.329 C 32.799 65.729,32.808 64.420,32.789 64.420 C 32.771 64.420,32.716 64.485,32.666 64.565 M85.532 64.779 C 88.312 66.125,86.989 70.197,83.771 70.197 L 82.801 70.197 82.801 71.496 C 82.801 72.210,82.753 72.919,82.695 73.071 C 82.544 73.462,80.957 73.462,80.806 73.071 C 80.630 72.612,80.687 65.352,80.871 64.869 C 81.108 64.247,84.305 64.185,85.532 64.779 M108.669 68.053 L 108.716 71.597 109.982 71.600 C 111.552 71.603,111.725 71.705,111.653 72.578 L 111.597 73.260 109.434 73.310 C 106.540 73.376,106.783 73.801,106.783 68.678 L 106.783 64.402 107.702 64.455 L 108.621 64.508 108.669 68.053 M224.178 64.840 C 226.707 66.360,225.286 70.197,222.195 70.197 L 221.269 70.197 221.269 71.496 C 221.269 72.210,221.221 72.919,221.163 73.071 C 221.013 73.462,219.425 73.462,219.275 73.071 C 219.081 72.566,219.156 65.120,219.359 64.741 C 219.627 64.242,223.307 64.318,224.178 64.840 M247.312 68.053 L 247.360 71.597 248.625 71.600 C 250.195 71.603,250.368 71.705,250.297 72.578 L 250.241 73.260 248.077 73.310 C 245.183 73.376,245.427 73.801,245.427 68.678 L 245.427 64.402 246.346 64.455 L 247.265 64.508 247.312 68.053 M354.427 64.537 C 354.205 64.759,354.293 72.910,354.521 73.138 C 354.827 73.444,358.065 73.410,359.143 73.090 C 360.577 72.664,361.610 71.425,361.733 69.981 C 361.768 69.570,361.761 69.392,361.718 69.584 C 361.078 72.449,359.902 73.232,356.388 73.135 L 354.573 73.085 354.526 68.993 C 354.493 66.122,354.539 64.830,354.679 64.661 C 354.877 64.423,354.652 64.312,354.427 64.537 M363.180 64.537 C 363.012 64.705,363.041 72.867,363.211 73.134 C 363.318 73.303,363.975 73.346,365.878 73.309 L 368.403 73.260 368.403 72.560 L 368.403 71.860 366.783 71.810 L 365.164 71.759 365.164 70.635 L 365.164 69.511 366.521 69.460 L 367.877 69.409 367.934 68.818 C 367.965 68.493,367.924 68.160,367.842 68.079 C 367.761 67.997,367.724 68.243,367.760 68.626 L 367.827 69.322 366.400 69.322 L 364.974 69.322 365.025 70.591 L 365.077 71.860 366.696 71.910 L 368.315 71.961 368.315 72.572 L 368.315 73.182 365.821 73.134 L 363.326 73.085 363.279 68.896 C 363.243 65.662,363.283 64.675,363.454 64.566 C 363.583 64.484,363.597 64.424,363.487 64.423 C 363.382 64.421,363.244 64.473,363.180 64.537 M368.286 65.125 L 368.352 65.821 366.670 65.821 L 364.989 65.821 365.022 66.915 L 365.055 68.009 365.118 67.009 L 365.181 66.009 366.792 65.958 L 368.403 65.908 368.459 65.317 C 368.490 64.992,368.449 64.659,368.367 64.577 C 368.286 64.496,368.249 64.742,368.286 65.125 M370.084 64.661 C 369.784 65.022,369.896 73.215,370.201 73.277 C 370.324 73.301,370.344 73.282,370.245 73.233 C 369.891 73.057,370.012 64.819,370.372 64.609 C 370.540 64.511,370.590 64.428,370.481 64.425 C 370.372 64.423,370.194 64.528,370.084 64.661 M372.518 64.892 C 372.755 65.162,373.018 65.462,373.103 65.558 C 373.187 65.654,373.132 65.487,372.981 65.185 C 372.829 64.884,372.565 64.584,372.396 64.519 C 372.161 64.429,372.191 64.519,372.518 64.892 M375.609 64.537 C 375.545 64.601,375.489 65.842,375.484 67.294 L 375.476 69.934 374.956 68.928 C 374.670 68.374,374.397 67.921,374.349 67.921 C 374.302 67.921,374.559 68.492,374.921 69.190 L 375.580 70.460 375.622 69.497 C 375.669 68.398,375.762 64.419,375.740 64.420 C 375.732 64.420,375.673 64.473,375.609 64.537 M377.155 68.769 L 377.155 73.085 376.242 73.138 C 375.300 73.192,375.294 73.189,374.523 72.210 C 374.260 71.876,374.257 71.880,374.455 72.298 C 374.866 73.167,375.149 73.348,376.097 73.348 C 376.593 73.348,377.092 73.253,377.208 73.138 C 377.444 72.901,377.520 64.679,377.287 64.535 C 377.214 64.490,377.155 66.396,377.155 68.769 M385.752 64.697 C 385.539 65.251,385.634 72.916,385.856 73.138 C 386.090 73.372,391.072 73.447,391.072 73.217 C 391.072 73.144,389.911 73.085,388.490 73.085 L 385.908 73.085 385.861 68.993 C 385.828 66.122,385.874 64.830,386.014 64.661 C 386.137 64.512,386.145 64.420,386.036 64.420 C 385.938 64.420,385.810 64.545,385.752 64.697 M390.925 65.077 L 390.897 65.821 389.234 65.821 L 387.571 65.821 387.604 66.915 L 387.637 68.009 387.700 67.002 L 387.764 65.996 389.336 65.996 C 391.067 65.996,391.151 65.942,391.025 64.918 C 390.960 64.390,390.950 64.406,390.925 65.077 M170.818 67.326 C 170.789 68.827,170.825 70.092,170.897 70.137 C 170.969 70.181,171.028 68.953,171.028 67.406 C 171.028 63.809,170.887 63.754,170.818 67.326 M172.644 68.718 C 172.615 71.770,172.544 72.998,172.386 73.182 C 172.241 73.351,172.272 73.345,172.477 73.163 C 172.758 72.915,172.781 72.520,172.735 68.699 L 172.685 64.508 172.644 68.718 M383.740 65.079 C 383.845 65.393,383.882 65.776,383.823 65.930 C 383.719 66.200,383.586 66.199,382.757 65.916 C 382.522 65.836,382.551 65.885,382.845 66.065 C 383.856 66.685,384.548 65.812,383.810 64.847 C 383.572 64.537,383.566 64.557,383.740 65.079 M26.994 68.917 C 26.975 71.247,27.018 73.189,27.090 73.234 C 27.162 73.278,27.201 72.042,27.176 70.487 C 27.092 65.202,27.031 64.672,26.994 68.917 M359.917 65.060 C 360.155 65.220,360.512 65.476,360.709 65.629 C 360.907 65.783,360.809 65.652,360.493 65.339 C 360.177 65.026,359.820 64.770,359.701 64.770 C 359.582 64.770,359.679 64.901,359.917 65.060 M379.180 65.279 C 378.981 65.558,378.818 65.849,378.818 65.925 C 378.818 66.001,379.015 65.797,379.256 65.470 C 379.497 65.144,379.694 64.853,379.694 64.824 C 379.694 64.658,379.500 64.830,379.180 65.279 M82.920 65.935 C 82.611 66.244,82.794 68.796,83.125 68.796 C 84.591 68.796,85.457 67.374,84.595 66.382 C 84.284 66.024,83.137 65.718,82.920 65.935 M91.096 65.992 C 88.864 66.894,89.407 71.772,91.740 71.772 C 93.318 71.772,94.004 70.866,94.004 68.781 C 94.004 66.524,92.753 65.323,91.096 65.992 M100.128 66.214 C 98.786 67.125,98.687 70.583,99.977 71.487 C 101.105 72.277,102.698 71.664,103.178 70.254 C 104.155 67.386,102.206 64.805,100.128 66.214 M221.269 67.309 C 221.269 68.663,221.300 68.796,221.608 68.796 C 223.491 68.796,224.113 66.491,222.361 66.004 C 221.257 65.698,221.269 65.683,221.269 67.309 M229.689 66.042 C 227.545 67.144,228.152 71.778,230.439 71.770 C 232.005 71.764,232.647 70.911,232.647 68.835 C 232.648 66.407,231.355 65.186,229.689 66.042 M238.771 66.214 C 237.839 66.847,237.444 68.743,237.901 70.390 C 238.413 72.231,240.941 72.296,241.761 70.490 C 243.003 67.755,240.910 64.763,238.771 66.214 M356.236 68.802 C 356.236 71.301,356.279 71.800,356.501 71.885 C 356.905 72.040,358.248 71.791,358.620 71.493 C 358.937 71.238,358.936 71.234,358.591 71.400 C 358.393 71.495,357.842 71.598,357.365 71.629 L 356.499 71.685 356.451 68.851 L 356.403 66.016 357.151 65.949 L 357.899 65.882 357.068 65.851 L 356.236 65.821 356.236 68.802 M373.217 65.886 C 373.217 66.075,373.912 67.396,374.011 67.396 C 374.060 67.396,373.930 67.061,373.724 66.652 C 373.318 65.847,373.217 65.694,373.217 65.886 M13.116 66.477 L 12.691 66.958 13.217 66.521 C 13.505 66.280,13.775 66.063,13.815 66.039 C 13.855 66.015,13.810 65.996,13.714 65.996 C 13.618 65.996,13.349 66.212,13.116 66.477 M151.512 66.519 C 151.236 66.807,151.044 67.064,151.085 67.091 C 151.126 67.118,151.409 66.882,151.714 66.568 C 152.018 66.253,152.210 65.996,152.140 65.996 C 152.070 65.996,151.787 66.231,151.512 66.519 M358.446 66.247 C 358.746 66.378,359.121 66.668,359.277 66.892 C 359.434 67.116,359.562 67.210,359.562 67.100 C 359.562 66.815,358.539 65.994,358.192 66.002 C 358.031 66.006,358.145 66.116,358.446 66.247 M361.402 66.783 C 361.537 67.168,361.651 67.674,361.655 67.907 C 361.660 68.139,361.710 68.282,361.768 68.225 C 361.930 68.062,361.666 66.766,361.397 66.406 C 361.196 66.137,361.197 66.200,361.402 66.783 M371.644 69.882 C 371.641 72.642,371.608 73.001,371.335 73.171 C 371.055 73.344,371.059 73.356,371.379 73.309 C 371.745 73.254,372.106 67.501,371.775 66.984 C 371.704 66.874,371.645 68.178,371.644 69.882 M380.744 67.015 C 380.744 67.235,381.752 67.925,382.057 67.914 C 382.153 67.910,381.996 67.784,381.707 67.633 C 381.418 67.482,381.083 67.234,380.963 67.081 C 380.829 66.911,380.744 66.886,380.744 67.015 M28.795 67.440 C 28.662 67.811,28.614 73.339,28.744 73.208 C 28.858 73.094,29.032 67.220,28.922 67.221 C 28.895 67.221,28.838 67.319,28.795 67.440 M167.002 70.109 C 167.002 71.730,167.038 73.020,167.082 72.977 C 167.202 72.856,167.226 67.386,167.106 67.267 C 167.049 67.210,167.002 68.489,167.002 70.109 M378.824 67.607 C 378.810 67.923,379.237 68.566,379.662 68.869 L 380.131 69.204 379.673 68.694 C 379.421 68.413,379.128 68.026,379.022 67.834 C 378.916 67.641,378.827 67.539,378.824 67.607 M155.505 68.972 C 155.505 69.597,155.536 69.853,155.575 69.540 C 155.614 69.228,155.614 68.716,155.575 68.403 C 155.536 68.090,155.505 68.346,155.505 68.972 M372.963 69.515 C 373.403 70.392,373.795 71.077,373.834 71.039 C 373.914 70.958,372.364 67.921,372.242 67.921 C 372.199 67.921,372.523 68.638,372.963 69.515 M382.319 67.986 C 382.319 68.042,382.538 68.200,382.805 68.338 C 383.071 68.476,383.521 68.813,383.805 69.087 C 384.246 69.512,384.282 69.524,384.059 69.171 C 383.814 68.785,382.319 67.766,382.319 67.986 M390.383 68.570 L 390.372 69.307 389.015 69.358 L 387.659 69.409 387.659 70.635 L 387.659 71.860 389.366 71.947 C 390.305 71.996,391.073 71.976,391.073 71.904 C 391.072 71.832,390.324 71.772,389.409 71.772 L 387.746 71.772 387.746 70.635 L 387.746 69.497 389.063 69.497 C 390.548 69.497,390.932 69.183,390.568 68.268 C 390.411 67.875,390.393 67.904,390.383 68.570 M19.306 68.884 C 19.307 69.365,19.341 69.542,19.382 69.275 C 19.422 69.009,19.421 68.616,19.379 68.400 C 19.338 68.185,19.305 68.403,19.306 68.884 M359.787 68.884 C 359.789 69.365,359.823 69.542,359.863 69.275 C 359.903 69.009,359.902 68.616,359.861 68.400 C 359.819 68.185,359.786 68.403,359.787 68.884 M12.302 68.972 C 12.302 69.405,12.336 69.582,12.377 69.365 C 12.419 69.149,12.419 68.794,12.377 68.578 C 12.336 68.361,12.302 68.538,12.302 68.972 M17.203 68.972 C 17.203 69.405,17.237 69.582,17.279 69.365 C 17.321 69.149,17.321 68.794,17.279 68.578 C 17.237 68.361,17.203 68.538,17.203 68.972 M380.584 69.387 C 380.764 69.548,381.794 70.022,381.794 69.943 C 381.794 69.843,380.824 69.322,380.636 69.322 C 380.567 69.322,380.543 69.351,380.584 69.387 M382.084 70.197 C 382.195 70.341,382.322 70.656,382.366 70.897 L 382.447 71.335 382.471 70.875 C 382.484 70.621,382.357 70.307,382.188 70.175 C 381.922 69.966,381.908 69.968,382.084 70.197 M157.730 70.494 C 157.727 70.609,157.902 70.888,158.118 71.115 C 158.335 71.342,158.425 71.405,158.318 71.256 C 158.211 71.107,158.036 70.827,157.929 70.635 C 157.822 70.442,157.733 70.379,157.730 70.494 M151.072 70.662 C 151.072 70.758,151.289 71.027,151.554 71.261 L 152.035 71.685 151.597 71.160 C 151.357 70.871,151.140 70.602,151.116 70.562 C 151.092 70.522,151.072 70.567,151.072 70.662 M169.365 71.597 C 169.515 71.886,169.676 72.123,169.725 72.123 C 169.773 72.123,169.690 71.886,169.540 71.597 C 169.391 71.309,169.230 71.072,169.181 71.072 C 169.133 71.072,169.216 71.309,169.365 71.597 M381.905 71.623 C 381.725 71.727,381.187 71.775,380.708 71.729 C 380.200 71.681,379.936 71.707,380.073 71.794 C 380.451 72.034,381.699 71.969,382.067 71.690 C 382.466 71.389,382.373 71.351,381.905 71.623 M383.829 72.201 C 383.671 72.443,383.246 72.797,382.886 72.987 C 382.526 73.177,382.295 73.336,382.372 73.340 C 382.841 73.366,384.435 72.079,384.211 71.855 C 384.160 71.804,383.988 71.959,383.829 72.201 M156.771 72.662 C 156.891 72.857,157.906 73.399,157.991 73.315 C 158.023 73.282,157.740 73.085,157.360 72.878 C 156.980 72.670,156.715 72.573,156.771 72.662 M378.818 72.880 C 378.963 73.028,379.317 73.195,379.606 73.250 C 379.895 73.305,380.013 73.299,379.869 73.237 C 379.724 73.175,379.370 73.009,379.081 72.867 C 378.608 72.635,378.582 72.636,378.818 72.880 M380.613 73.473 C 380.877 73.513,381.311 73.513,381.575 73.473 C 381.840 73.433,381.624 73.400,381.094 73.400 C 380.565 73.400,380.348 73.433,380.613 73.473 " stroke="none" fill="#cbc4c4" fill-rule="evenodd"></path><path id="path3" d="M34.684 155.636 C 30.435 157.760,26.958 159.576,26.958 159.671 C 26.958 159.765,27.254 159.966,27.615 160.116 C 27.976 160.266,28.311 160.451,28.359 160.525 C 28.407 160.600,28.958 160.876,29.584 161.138 C 30.210 161.400,30.761 161.671,30.810 161.740 C 30.858 161.809,31.350 162.050,31.904 162.277 C 32.457 162.505,32.910 162.745,32.910 162.812 C 32.910 162.879,33.383 163.110,33.961 163.326 C 34.538 163.542,35.011 163.775,35.011 163.845 C 35.011 163.914,35.562 164.193,36.236 164.464 C 36.910 164.735,37.462 165.014,37.462 165.083 C 37.462 165.152,37.934 165.386,38.512 165.602 C 39.090 165.818,39.562 166.049,39.562 166.116 C 39.562 166.183,40.015 166.425,40.569 166.653 C 41.123 166.882,41.680 167.172,41.807 167.298 C 41.934 167.424,42.105 167.527,42.186 167.527 C 42.268 167.527,42.459 167.575,42.612 167.634 C 42.856 167.728,42.888 167.435,42.888 165.095 L 42.888 162.451 207.965 162.451 L 373.042 162.451 373.042 159.650 L 373.042 156.849 207.965 156.849 L 42.888 156.849 42.888 154.311 C 42.888 152.283,42.840 151.772,42.649 151.772 C 42.518 151.772,38.934 153.511,34.684 155.636 " stroke="none" fill="#fcbc2c" fill-rule="evenodd"></path><path id="path4" d="M13.075 64.495 C 9.727 65.395,9.193 71.436,12.321 73.032 C 13.928 73.852,16.663 73.310,16.774 72.150 C 16.871 71.138,16.747 71.036,15.894 71.424 C 13.778 72.384,12.341 71.352,12.356 68.884 C 12.372 66.310,13.806 65.258,15.865 66.311 C 16.704 66.741,16.805 66.688,16.805 65.819 C 16.805 64.523,15.152 63.937,13.075 64.495 M20.079 64.494 C 16.776 65.383,16.248 71.463,19.339 73.040 C 21.681 74.235,24.761 73.020,25.485 70.615 C 26.744 66.433,24.081 63.419,20.079 64.494 M90.328 64.503 C 86.602 65.706,86.793 72.559,90.574 73.344 C 94.520 74.164,97.096 70.951,95.847 66.771 C 95.232 64.713,92.788 63.709,90.328 64.503 M99.580 64.520 C 96.523 65.461,96.022 71.526,98.881 72.985 C 101.339 74.239,104.451 73.138,105.140 70.769 C 106.433 66.322,103.701 63.251,99.580 64.520 M151.543 64.495 C 148.226 65.387,147.632 71.282,150.689 72.969 C 152.313 73.866,155.126 73.359,155.242 72.150 C 155.340 71.128,155.219 71.038,154.292 71.448 C 151.952 72.484,150.305 70.809,150.874 67.974 C 151.261 66.048,152.579 65.414,154.333 66.311 C 155.173 66.741,155.274 66.688,155.274 65.819 C 155.274 64.538,153.597 63.943,151.543 64.495 M158.512 64.444 C 155.337 65.187,154.415 71.237,157.236 72.823 C 160.596 74.711,163.951 72.650,163.931 68.709 C 163.914 65.243,161.894 63.653,158.512 64.444 M228.994 64.497 C 226.102 65.438,225.314 70.825,227.792 72.715 C 230.469 74.757,234.374 72.995,234.691 69.603 C 235.071 65.539,232.599 63.323,228.994 64.497 M238.382 64.494 C 235.104 65.664,234.566 71.470,237.593 73.022 C 239.919 74.214,243.024 73.125,243.778 70.853 C 245.203 66.564,242.269 63.107,238.382 64.494 M27.349 64.566 C 27.178 64.675,27.138 65.679,27.174 68.984 L 27.221 73.260 27.921 73.260 L 28.621 73.260 28.667 70.460 C 28.719 67.206,28.785 66.878,29.212 67.746 C 31.518 72.442,32.162 73.348,33.191 73.348 C 34.500 73.348,34.498 73.355,34.445 68.650 L 34.398 64.508 33.611 64.508 L 32.823 64.508 32.735 67.396 L 32.648 70.284 31.278 67.659 C 30.525 66.214,29.749 64.895,29.552 64.726 C 29.177 64.405,27.766 64.302,27.349 64.566 M35.468 64.563 C 35.414 64.652,36.017 66.645,36.809 68.992 L 38.249 73.260 39.333 73.312 C 40.661 73.376,40.431 73.755,42.107 68.749 C 43.676 64.064,43.645 64.388,42.514 64.455 L 41.614 64.508 41.028 66.346 C 40.705 67.357,40.276 68.775,40.073 69.497 C 39.547 71.367,39.511 71.348,38.700 68.765 C 38.297 67.483,37.828 66.000,37.657 65.470 L 37.347 64.508 36.457 64.455 C 35.968 64.426,35.523 64.475,35.468 64.563 M80.871 64.869 C 80.687 65.352,80.630 72.612,80.806 73.071 C 80.957 73.462,82.544 73.462,82.695 73.071 C 82.753 72.919,82.801 72.210,82.801 71.496 L 82.801 70.197 83.771 70.197 C 86.989 70.197,88.312 66.125,85.532 64.779 C 84.305 64.185,81.108 64.247,80.871 64.869 M106.783 68.678 C 106.783 73.801,106.540 73.376,109.434 73.310 L 111.597 73.260 111.653 72.578 C 111.725 71.705,111.552 71.603,109.982 71.600 L 108.716 71.597 108.669 68.053 L 108.621 64.508 107.702 64.455 L 106.783 64.402 106.783 68.678 M165.433 64.759 C 165.214 65.167,165.188 72.801,165.403 73.141 C 165.495 73.286,165.805 73.351,166.232 73.316 L 166.915 73.260 167.002 70.197 L 167.090 67.133 168.654 70.022 C 170.398 73.243,170.476 73.335,171.475 73.342 C 172.614 73.351,172.604 73.391,172.604 68.674 L 172.604 64.420 171.820 64.420 L 171.037 64.420 170.989 67.352 L 170.941 70.284 169.557 67.675 C 168.796 66.240,168.028 64.921,167.850 64.743 C 167.380 64.273,165.687 64.284,165.433 64.759 M173.653 64.639 C 173.651 64.970,176.310 72.877,176.511 73.137 C 176.629 73.289,177.034 73.346,177.752 73.312 L 178.818 73.260 180.264 68.982 C 181.814 64.397,181.816 64.368,180.641 64.453 L 179.878 64.508 179.110 66.958 C 178.030 70.407,177.728 71.205,177.618 70.897 C 177.566 70.753,177.083 69.236,176.543 67.527 L 175.562 64.420 174.608 64.420 C 173.962 64.420,173.654 64.491,173.653 64.639 M219.359 64.741 C 219.156 65.120,219.081 72.566,219.275 73.071 C 219.425 73.462,221.013 73.462,221.163 73.071 C 221.221 72.919,221.269 72.210,221.269 71.496 L 221.269 70.197 222.195 70.197 C 225.286 70.197,226.707 66.360,224.178 64.840 C 223.307 64.318,219.627 64.242,219.359 64.741 M245.427 68.678 C 245.427 73.801,245.183 73.376,248.077 73.310 L 250.241 73.260 250.297 72.578 C 250.368 71.705,250.195 71.603,248.625 71.600 L 247.360 71.597 247.312 68.053 L 247.265 64.508 246.346 64.455 L 245.427 64.402 245.427 68.678 M354.698 64.638 C 354.534 64.836,354.491 65.922,354.526 68.993 L 354.573 73.085 356.388 73.135 C 360.163 73.240,361.695 71.993,361.717 68.796 C 361.731 66.842,361.080 65.637,359.629 64.935 C 358.573 64.424,355.051 64.212,354.698 64.638 M363.454 64.564 C 363.283 64.675,363.243 65.663,363.279 68.896 L 363.326 73.085 365.821 73.134 L 368.315 73.182 368.315 72.572 L 368.315 71.961 366.696 71.910 L 365.077 71.860 365.025 70.591 L 364.974 69.322 366.392 69.322 L 367.811 69.322 367.757 68.665 L 367.702 68.009 366.346 67.958 L 364.989 67.906 364.989 66.864 L 364.989 65.821 366.663 65.821 L 368.336 65.821 368.282 65.164 L 368.228 64.508 365.952 64.464 C 364.700 64.440,363.576 64.485,363.454 64.564 M370.372 64.609 C 370.094 64.771,370.066 65.172,370.066 68.977 L 370.066 73.166 370.487 73.272 C 371.556 73.540,371.641 73.292,371.643 69.884 L 371.645 66.783 372.097 67.571 C 372.345 68.004,373.016 69.273,373.589 70.389 C 374.954 73.052,375.101 73.204,376.251 73.138 L 377.155 73.085 377.155 68.796 L 377.155 64.508 376.455 64.508 L 375.755 64.508 375.667 67.484 L 375.580 70.460 375.075 69.497 C 374.797 68.967,374.178 67.786,373.700 66.871 C 372.427 64.440,371.613 63.887,370.372 64.609 M380.092 64.640 C 378.981 65.283,378.506 66.810,379.075 67.909 C 379.363 68.466,380.308 69.322,380.636 69.322 C 381.182 69.322,382.495 70.370,382.495 70.806 C 382.495 71.478,381.916 71.947,381.087 71.947 C 380.698 71.947,380.071 71.790,379.694 71.597 C 378.744 71.113,378.643 71.147,378.643 71.956 C 378.643 73.713,382.663 73.879,383.854 72.170 C 384.985 70.546,384.351 69.066,382.041 67.940 C 379.982 66.936,380.291 65.295,382.435 65.849 C 383.703 66.176,383.811 66.148,383.780 65.495 C 383.764 65.172,383.662 64.817,383.552 64.707 C 383.260 64.415,380.570 64.363,380.092 64.640 M386.014 64.661 C 385.874 64.830,385.828 66.122,385.861 68.993 L 385.908 73.085 388.446 73.085 L 390.985 73.085 390.985 72.560 L 390.985 72.035 389.322 71.947 L 387.659 71.860 387.659 70.635 L 387.659 69.409 389.015 69.358 L 390.372 69.307 390.372 68.614 L 390.372 67.921 388.972 67.921 L 387.571 67.921 387.571 66.871 L 387.571 65.821 389.234 65.821 L 390.897 65.821 390.897 65.120 L 390.897 64.420 388.555 64.420 C 386.782 64.420,386.165 64.479,386.014 64.661 M278.409 65.434 C 274.809 67.426,276.263 72.498,280.310 72.063 C 283.822 71.685,284.514 66.793,281.261 65.339 C 280.566 65.028,279.051 65.079,278.409 65.434 M300.396 65.374 C 300.157 65.506,299.881 65.570,299.783 65.515 C 299.686 65.459,299.665 65.479,299.737 65.558 C 299.809 65.638,299.633 65.845,299.348 66.019 C 298.301 66.655,297.839 68.852,298.474 70.167 C 299.309 71.896,302.418 72.724,303.608 71.534 C 303.814 71.328,304.049 71.160,304.131 71.160 C 304.213 71.160,304.467 70.825,304.697 70.416 C 304.927 70.007,305.082 69.672,305.042 69.672 C 305.002 69.672,305.041 69.422,305.129 69.116 C 305.220 68.801,305.223 68.480,305.136 68.372 C 305.052 68.269,304.997 67.987,305.013 67.746 C 305.030 67.505,305.001 67.269,304.950 67.221 C 304.899 67.173,304.726 66.897,304.564 66.608 C 303.905 65.427,301.556 64.732,300.396 65.374 M322.013 65.411 C 321.402 65.733,320.700 66.343,320.700 66.551 C 320.700 66.631,320.534 66.862,320.332 67.064 C 319.705 67.691,319.905 69.683,320.703 70.752 C 323.214 74.120,328.404 70.809,326.594 66.995 C 325.836 65.398,323.543 64.605,322.013 65.411 M22.704 66.163 C 23.720 66.782,24.020 69.881,23.175 71.020 C 21.902 72.735,19.603 71.812,19.329 69.477 C 19.018 66.827,20.847 65.031,22.704 66.163 M84.595 66.382 C 85.457 67.374,84.591 68.796,83.125 68.796 C 82.794 68.796,82.611 66.244,82.920 65.935 C 83.137 65.718,84.284 66.024,84.595 66.382 M92.854 66.089 C 94.379 66.812,94.457 70.733,92.962 71.506 C 91.471 72.277,90.106 71.536,89.789 69.783 C 89.298 67.069,90.886 65.155,92.854 66.089 M102.341 66.155 C 103.715 66.993,103.788 70.374,102.454 71.423 C 101.470 72.197,99.806 71.769,99.325 70.617 C 98.186 67.892,100.230 64.868,102.341 66.155 M160.794 66.030 C 162.530 66.821,162.300 70.983,160.482 71.677 C 158.863 72.296,157.737 71.385,157.591 69.337 C 157.402 66.697,158.888 65.162,160.794 66.030 M222.361 66.004 C 224.113 66.491,223.491 68.796,221.608 68.796 C 221.300 68.796,221.269 68.663,221.269 67.309 C 221.269 65.683,221.257 65.698,222.361 66.004 M231.620 66.095 C 233.050 66.835,233.034 70.831,231.597 71.549 C 229.701 72.496,228.341 71.180,228.475 68.528 C 228.588 66.295,229.957 65.235,231.620 66.095 M240.898 66.095 C 242.432 66.888,242.483 70.530,240.975 71.518 C 239.911 72.215,238.238 71.601,237.901 70.390 C 237.088 67.462,238.799 65.010,240.898 66.095 M358.845 66.304 C 360.974 67.878,359.840 71.770,357.233 71.837 L 356.324 71.860 356.276 68.816 L 356.228 65.771 357.309 65.869 C 357.972 65.929,358.567 66.098,358.845 66.304 " stroke="none" fill="#f7f7f7" fill-rule="evenodd"></path></g></svg>