<svg version="1.1" width="512.000000" height="512.000000" viewBox="0.000000 0.000000 64.000000 64.000000" xmlns="http://www.w3.org/2000/svg" xmlns:xlink="http://www.w3.org/1999/xlink" id="_x33_0" overflow="hidden"><circle cx="20.000000" cy="36.000000" r="3.000000" fill="#FFEAA7"/><circle cx="9.000000" cy="49.000000" r="2.000000" fill="#FFEAA7"/><path d=" M 22.150000 18.090000 C 21.610001 18.650000 20.840000 19.000000 20.000000 19.000000 C 18.340000 19.000000 17.000000 17.660000 17.000000 16.000000 C 17.000000 14.340000 18.340000 13.000000 20.000000 13.000000 C 21.660000 13.000000 23.000000 14.340000 23.000000 16.000000 C 23.000000 16.820000 22.670000 17.549999 22.150000 18.090000 Z" fill="#FFEAA7"/><path d=" M 41.630001 22.219999 C 40.639999 21.490000 40.000000 20.320000 40.000000 19.000000 C 40.000000 16.790001 41.790001 15.000000 44.000000 15.000000 C 46.209999 15.000000 48.000000 16.790001 48.000000 19.000000 C 48.000000 21.209999 46.209999 23.000000 44.000000 23.000000 C 43.119999 23.000000 42.299999 22.709999 41.630001 22.219999 Z" fill="#B4DD7F"/><circle cx="55.000000" cy="49.000000" r="2.000000" fill="#FFEAA7"/><circle cx="44.000000" cy="36.000000" r="3.000000" fill="#B4DD7F"/><g fill="#A0D468"><path d=" M 12.000000 37.000000 C 12.000000 38.130001 11.630000 39.169998 11.000000 40.000000 C 10.090000 41.209999 8.630000 42.000000 7.000000 42.000000 C 4.240000 42.000000 2.000000 39.759998 2.000000 37.000000 C 2.000000 34.240002 4.240000 32.000000 7.000000 32.000000 C 9.760000 32.000000 12.000000 34.240002 12.000000 37.000000 Z"/><circle cx="32.000000" cy="8.000000" r="6.000000"/><path d=" M 57.000000 32.000000 C 59.759998 32.000000 62.000000 34.240002 62.000000 37.000000 C 62.000000 39.759998 59.759998 42.000000 57.000000 42.000000 C 55.369999 42.000000 53.910000 41.209999 53.000000 40.000000 C 52.369999 39.169998 52.000000 38.130001 52.000000 37.000000 C 52.000000 34.240002 54.240002 32.000000 57.000000 32.000000 Z"/><path d=" M 32.000000 46.000000 C 36.419998 46.000000 40.000000 49.580002 40.000000 54.000000 C 40.000000 58.419998 36.419998 62.000000 32.000000 62.000000 C 27.580000 62.000000 24.000000 58.419998 24.000000 54.000000 C 24.000000 49.580002 27.580000 46.000000 32.000000 46.000000 Z"/></g><circle cx="32.000000" cy="54.000000" r="4.000000" fill="#B4DD7F"/><path d=" M 32.000000 49.000000 C 29.243000 49.000000 27.000000 51.243000 27.000000 54.000000 C 27.000000 56.757000 29.243000 59.000000 32.000000 59.000000 C 34.757000 59.000000 37.000000 56.757000 37.000000 54.000000 C 37.000000 51.243000 34.757000 49.000000 32.000000 49.000000 Z M 32.000000 57.000000 C 30.346001 57.000000 29.000000 55.653999 29.000000 54.000000 C 29.000000 52.346001 30.346001 51.000000 32.000000 51.000000 C 33.653999 51.000000 35.000000 52.346001 35.000000 54.000000 C 35.000000 55.653999 33.653999 57.000000 32.000000 57.000000 Z"/><path d=" M 33.000000 8.000000 L 35.000000 8.000000 C 35.000000 6.346000 33.653999 5.000000 32.000000 5.000000 L 32.000000 7.000000 C 32.550999 7.000000 33.000000 7.449000 33.000000 8.000000 Z"/><path d=" M 58.000000 37.000000 L 60.000000 37.000000 C 60.000000 35.346001 58.653999 34.000000 57.000000 34.000000 L 57.000000 36.000000 C 57.550999 36.000000 58.000000 36.449001 58.000000 37.000000 Z"/><path d=" M 52.858002 41.330002 C 53.936001 42.362000 55.394001 43.000000 57.000000 43.000000 C 60.308998 43.000000 63.000000 40.308998 63.000000 37.000000 C 63.000000 33.691002 60.308998 31.000000 57.000000 31.000000 C 53.691002 31.000000 51.000000 33.691002 51.000000 37.000000 C 51.000000 37.981998 51.242001 38.907001 51.661999 39.727001 L 46.723000 43.255001 L 46.080002 39.400002 C 47.227001 38.695999 48.000000 37.441002 48.000000 36.000000 C 48.000000 33.793999 46.206001 32.000000 44.000000 32.000000 C 41.793999 32.000000 40.000000 33.793999 40.000000 36.000000 C 40.000000 38.206001 41.793999 40.000000 44.000000 40.000000 C 44.051998 40.000000 44.098999 39.987000 44.150002 39.985001 L 44.910999 44.549000 L 39.202000 48.626999 C 37.748001 46.682999 35.534000 45.341000 33.000000 45.060001 L 33.000000 28.566000 L 41.640999 23.381001 C 42.347000 23.763000 43.143002 24.000000 44.000000 24.000000 C 46.757000 24.000000 49.000000 21.757000 49.000000 19.000000 C 49.000000 16.243000 46.757000 14.000000 44.000000 14.000000 C 41.243000 14.000000 39.000000 16.243000 39.000000 19.000000 C 39.000000 20.136000 39.395000 21.172001 40.035999 22.011999 L 33.000000 26.233999 L 33.000000 14.920000 C 36.387001 14.432000 39.000000 11.519000 39.000000 8.000000 C 39.000000 4.140000 35.860001 1.000000 32.000000 1.000000 C 28.139999 1.000000 25.000000 4.140000 25.000000 8.000000 C 25.000000 11.519000 27.613001 14.432000 31.000000 14.920000 L 31.000000 22.233999 L 23.566999 17.774000 C 23.834999 17.237000 24.000000 16.639999 24.000000 16.000000 C 24.000000 13.794000 22.205999 12.000000 20.000000 12.000000 C 17.794001 12.000000 16.000000 13.794000 16.000000 16.000000 C 16.000000 18.205999 17.794001 20.000000 20.000000 20.000000 C 20.830000 20.000000 21.601000 19.745001 22.240999 19.311001 L 31.000000 24.566000 L 31.000000 45.058998 C 28.465000 45.341000 26.252001 46.682999 24.798000 48.625999 L 19.089001 44.548000 L 19.850000 39.984001 C 19.900999 39.987000 19.948000 40.000000 20.000000 40.000000 C 22.205999 40.000000 24.000000 38.206001 24.000000 36.000000 C 24.000000 33.793999 22.205999 32.000000 20.000000 32.000000 C 17.794001 32.000000 16.000000 33.793999 16.000000 36.000000 C 16.000000 37.441002 16.773001 38.695999 17.920000 39.400002 L 17.278000 43.255001 L 12.339000 39.727001 C 12.758000 38.907001 13.000000 37.981998 13.000000 37.000000 C 13.000000 33.691002 10.309000 31.000000 7.000000 31.000000 C 3.691000 31.000000 1.000000 33.691002 1.000000 37.000000 C 1.000000 40.308998 3.691000 43.000000 7.000000 43.000000 C 8.606000 43.000000 10.064000 42.362000 11.142000 41.330002 L 16.148001 44.905998 L 11.589000 47.511002 C 11.070000 46.612999 10.110000 46.000000 9.000000 46.000000 C 7.346000 46.000000 6.000000 47.346001 6.000000 49.000000 C 6.000000 50.653999 7.346000 52.000000 9.000000 52.000000 C 10.443000 52.000000 11.649000 50.976002 11.935000 49.618000 L 17.940001 46.187000 L 23.778000 50.356998 C 23.282000 51.471001 23.000000 52.702999 23.000000 54.000000 C 23.000000 58.962002 27.038000 63.000000 32.000000 63.000000 C 36.962002 63.000000 41.000000 58.962002 41.000000 54.000000 C 41.000000 52.702999 40.717999 51.471001 40.222000 50.355999 L 46.060001 46.186001 L 52.064999 49.617001 C 52.351002 50.976002 53.556999 52.000000 55.000000 52.000000 C 56.653999 52.000000 58.000000 50.653999 58.000000 49.000000 C 58.000000 47.346001 56.653999 46.000000 55.000000 46.000000 C 53.889999 46.000000 52.930000 46.612999 52.410999 47.512001 L 47.852001 44.907001 Z M 42.000000 36.000000 C 42.000000 34.896999 42.896999 34.000000 44.000000 34.000000 C 45.103001 34.000000 46.000000 34.896999 46.000000 36.000000 C 46.000000 37.103001 45.103001 38.000000 44.000000 38.000000 C 42.896999 38.000000 42.000000 37.103001 42.000000 36.000000 Z M 44.000000 16.000000 C 45.653999 16.000000 47.000000 17.346001 47.000000 19.000000 C 47.000000 20.653999 45.653999 22.000000 44.000000 22.000000 C 42.346001 22.000000 41.000000 20.653999 41.000000 19.000000 C 41.000000 17.346001 42.346001 16.000000 44.000000 16.000000 Z M 20.000000 18.000000 C 18.896999 18.000000 18.000000 17.103001 18.000000 16.000000 C 18.000000 14.897000 18.896999 14.000000 20.000000 14.000000 C 21.103001 14.000000 22.000000 14.897000 22.000000 16.000000 C 22.000000 17.103001 21.103001 18.000000 20.000000 18.000000 Z M 20.000000 34.000000 C 21.103001 34.000000 22.000000 34.896999 22.000000 36.000000 C 22.000000 37.103001 21.103001 38.000000 20.000000 38.000000 C 18.896999 38.000000 18.000000 37.103001 18.000000 36.000000 C 18.000000 34.896999 18.896999 34.000000 20.000000 34.000000 Z M 9.000000 50.000000 C 8.449000 50.000000 8.000000 49.550999 8.000000 49.000000 C 8.000000 48.449001 8.449000 48.000000 9.000000 48.000000 C 9.551000 48.000000 10.000000 48.449001 10.000000 49.000000 C 10.000000 49.550999 9.551000 50.000000 9.000000 50.000000 Z M 7.000000 41.000000 C 4.794000 41.000000 3.000000 39.206001 3.000000 37.000000 C 3.000000 34.793999 4.794000 33.000000 7.000000 33.000000 C 9.206000 33.000000 11.000000 34.793999 11.000000 37.000000 C 11.000000 39.206001 9.206000 41.000000 7.000000 41.000000 Z M 27.000000 8.000000 C 27.000000 5.243000 29.243000 3.000000 32.000000 3.000000 C 34.757000 3.000000 37.000000 5.243000 37.000000 8.000000 C 37.000000 10.757000 34.757000 13.000000 32.000000 13.000000 C 29.243000 13.000000 27.000000 10.757000 27.000000 8.000000 Z M 32.000000 61.000000 C 28.139999 61.000000 25.000000 57.860001 25.000000 54.000000 C 25.000000 50.139999 28.139999 47.000000 32.000000 47.000000 C 35.860001 47.000000 39.000000 50.139999 39.000000 54.000000 C 39.000000 57.860001 35.860001 61.000000 32.000000 61.000000 Z M 55.000000 48.000000 C 55.550999 48.000000 56.000000 48.449001 56.000000 49.000000 C 56.000000 49.550999 55.550999 50.000000 55.000000 50.000000 C 54.449001 50.000000 54.000000 49.550999 54.000000 49.000000 C 54.000000 48.449001 54.449001 48.000000 55.000000 48.000000 Z M 57.000000 33.000000 C 59.206001 33.000000 61.000000 34.793999 61.000000 37.000000 C 61.000000 39.206001 59.206001 41.000000 57.000000 41.000000 C 54.793999 41.000000 53.000000 39.206001 53.000000 37.000000 C 53.000000 34.793999 54.793999 33.000000 57.000000 33.000000 Z"/><path d=" M 4.000000 37.000000 L 6.000000 37.000000 C 6.000000 36.449001 6.449000 36.000000 7.000000 36.000000 L 7.000000 34.000000 C 5.346000 34.000000 4.000000 35.346001 4.000000 37.000000 Z"/></svg>