<?xml version="1.0" standalone="yes"?>
<svg width="364" height="1125">
<path style="fill:#ffffff; stroke:none;" d="M0 0L0 1125L183 1125C169.759 1106.2 149.267 1090.27 133 1074C89.3931 1030.39 41.3144 988.606 1 942L92 942L92 183L1 183C41.3144 136.394 89.3931 94.6069 133 51C149.267 34.7334 169.759 18.7966 183 0L0 0M184 0C192.339 11.8383 204.764 21.7644 215 32L274 91L333 150C342.918 159.918 352.528 171.919 364 180L364 0L184 0z"/>
<path style="fill:#f3f3f3; stroke:none;" d="M1 181C4.88924 185.451 18.3192 183 24 183L92 183C85.0814 180.097 74.4798 182 67 182C46.2527 182 21.1848 185.805 1 181M364 943C356.6 939.895 345.007 942 337 942L275 942L275 183L364 183C357.806 180.401 348.686 182 342 182L295 182C290.655 182 276.857 179.738 274.603 184.318C272.841 187.899 274 194.096 274 198L274 231L274 347L274 761L274 890L274 926C274 930.155 272.732 936.878 274.603 940.682C276.901 945.35 291.538 943 296 943L364 943z"/>
<path style="fill:#ffffff; stroke:none;" d="M275 183L275 942L364 942L364 183L275 183z"/>
<path style="fill:#f3f3f3; stroke:none;" d="M1 944C11.1171 941.591 22.6373 943 33 943L92 943C85.806 940.401 76.6859 942 70 942L23 942C17.4727 942 4.79635 939.656 1 944z"/>
<path style="fill:#ffffff; stroke:none;" d="M363 945L243 1065C223.878 1084.12 199.561 1102.91 184 1125L364 1125L364 999L364 963C364 957.381 365.189 950.216 363 945z"/>
</svg>
